<svg width="14" height="14" viewBox="0 0 14 14" fill="none" xmlns="http://www.w3.org/2000/svg">
<rect x="0.5" y="0.5" width="13" height="13" rx="6.5" stroke="black"/>
<path fill-rule="evenodd" clip-rule="evenodd" d="M6.99888 2.00035C6.9986 2.00037 6.99832 2.00038 6.99804 2.00039C6.997 2.00045 6.99596 2.00053 6.99492 2.00062C6.99193 2.00074 6.98895 2.00097 6.98598 2.00132C6.95984 2.00446 6.93554 2.01638 6.91705 2.03513C6.89857 2.05388 6.887 2.07834 6.88423 2.10452C6.36871 4.75134 4.89834 6.42246 2.10611 6.88459C2.08153 6.88673 2.05828 6.89664 2.03971 6.91287C2.02113 6.92911 2.00821 6.95082 2.0028 6.97489C2.00272 6.97528 2.00265 6.97567 2.00258 6.97605C2.00186 6.97936 2.00129 6.9827 2.00087 6.98605C2.00077 6.98694 2.00069 6.98783 2.00061 6.98873C2.00033 6.99139 2.00013 6.99407 2.00003 6.99675C1.99999 6.99853 1.99999 7.00031 2.00003 7.00209C2.00003 7.00399 2.00008 7.00589 2.00018 7.00779C2.00037 7.01047 2.00065 7.01315 2.00102 7.01582C2.00113 7.01671 2.00125 7.01759 2.00138 7.01848C2.00194 7.02208 2.00267 7.02565 2.00356 7.02918C2.00951 7.05274 2.0227 7.07385 2.04127 7.08952C2.05984 7.1052 2.08286 7.11467 2.10709 7.11658C4.89817 7.57886 6.36823 9.24938 6.88394 11.895C6.88645 11.922 6.89826 11.9472 6.91734 11.9663C6.93642 11.9855 6.96158 11.9973 6.98849 12C6.98881 12 6.98914 12 6.98946 12H6.98968C6.99192 12 6.99416 12 6.9964 12C6.99826 12 7.00011 12 7.00196 12C7.00277 12 7.00358 12 7.0044 12C7.03236 11.9989 7.05901 11.9879 7.07947 11.9688C7.09993 11.9497 7.11282 11.9239 7.11577 11.8961C7.63242 9.24928 9.10156 7.57821 11.8936 7.116C11.9182 7.11392 11.9415 7.10404 11.9602 7.08779C11.9788 7.07155 11.9918 7.04978 11.9972 7.02566C11.9973 7.02527 11.9974 7.02488 11.9974 7.02449C11.9981 7.02119 11.9987 7.01785 11.9991 7.0145C11.9992 7.01361 11.9993 7.01272 11.9994 7.01183C11.9997 7.00916 11.9999 7.00648 12 7.0038C12 7.00202 12 7.00024 12 6.99845C12 6.99655 11.9999 6.99466 11.9998 6.99276C11.9996 6.99008 11.9994 6.9874 11.999 6.98474C11.9989 6.98385 11.9988 6.98295 11.9986 6.98206C11.9981 6.97847 11.9973 6.9749 11.9965 6.97137C11.9905 6.94785 11.9774 6.92677 11.9588 6.9111C11.9403 6.89543 11.9174 6.88594 11.8932 6.88397C9.10193 6.42173 7.63294 4.75125 7.11606 2.10545C7.11354 2.07854 7.10173 2.05336 7.08265 2.03422C7.06357 2.01508 7.03842 2.00319 7.01152 2.00058C7.01118 2.00054 7.01084 2.00051 7.0105 2.00047H7.01025C7.00802 2.00033 7.00579 2.00025 7.00357 2.00023C7.002 2.00013 7.00044 2.00005 6.99887 2L6.99888 2.00035Z" fill="black"/>
</svg>
